<?xml version="1.0" encoding="UTF-8" standalone="no"?><!DOCTYPE svg PUBLIC "-//W3C//DTD SVG 1.1//EN" "http://www.w3.org/Graphics/SVG/1.1/DTD/svg11.dtd"><svg width="100%" height="100%" viewBox="0 0 653 166" version="1.1" xmlns="http://www.w3.org/2000/svg" xmlns:xlink="http://www.w3.org/1999/xlink" xml:space="preserve" style="fill-rule:evenodd;clip-rule:evenodd;stroke-linejoin:round;stroke-miterlimit:1.41421;"><g><path d="M204.465,139.283c-9.618,0 -16.972,-7.213 -16.972,-18.387c0,-11.173 7.354,-18.386 16.972,-18.386c9.476,0 16.831,7.213 16.831,18.386c0,11.174 -7.355,18.387 -16.831,18.387Zm-5.375,18.669c11.174,0 17.963,-4.526 21.074,-8.061l2.971,6.364l18.81,0l0,-70.718l-19.659,0l-2.122,5.941c-3.677,-3.961 -11.032,-7.638 -20.225,-7.638c-16.972,0 -34.086,13.295 -34.086,37.056c0,22.347 15.275,37.056 33.237,37.056Z" style="fill:#4f535f;fill-rule:nonzero;"/><path d="M292.228,157.952c18.104,0 34.652,-13.86 34.652,-37.056c0,-24.61 -15.982,-37.056 -33.52,-37.056c-9.618,0 -16.973,3.96 -21.357,8.486l0,-37.197l-21.498,0l0,101.126l18.103,0l2.405,-7.213c3.536,4.667 11.173,8.91 21.215,8.91Zm-3.96,-18.811c-9.618,0 -17.114,-7.213 -17.114,-18.245c0,-11.032 7.779,-18.245 17.397,-18.245c9.759,0 16.831,7.213 16.831,18.245c0,11.032 -7.638,18.245 -17.114,18.245Z" style="fill:#4f535f;fill-rule:nonzero;"/><rect x="335.431" y="55.129" width="21.498" height="101.126" style="fill:#4f535f;fill-rule:nonzero;"/><path d="M400.683,157.952c15.84,0 27.438,-6.647 33.52,-18.245l-17.68,-8.627c-2.828,4.808 -7.071,8.344 -14.709,8.344c-8.486,0 -14.568,-4.808 -15.699,-12.87l49.926,0c0.566,-2.405 0.849,-5.375 0.849,-7.921c0,-18.103 -11.88,-34.793 -36.207,-34.793c-21.499,0 -36.067,15.134 -36.067,37.056c0,22.064 14.568,37.056 36.067,37.056Zm-14.427,-45.966c0.849,-5.94 6.506,-11.174 14.427,-11.174c7.779,0 13.436,5.092 14.285,11.174l-28.712,0Z" style="fill:#4f535f;fill-rule:nonzero;"/><path d="M481.281,157.952c15.84,0 27.438,-6.647 33.52,-18.245l-17.68,-8.627c-2.828,4.808 -7.071,8.344 -14.709,8.344c-8.486,0 -14.568,-4.808 -15.699,-12.87l49.927,0c0.565,-2.405 0.848,-5.375 0.848,-7.921c0,-18.103 -11.88,-34.793 -36.207,-34.793c-21.499,0 -36.066,15.134 -36.066,37.056c0,22.064 14.567,37.056 36.066,37.056Zm-14.427,-45.966c0.849,-5.94 6.506,-11.174 14.427,-11.174c7.779,0 13.436,5.092 14.285,11.174l-28.712,0Z" style="fill:#4f535f;fill-rule:nonzero;"/><path d="M526.333,156.255l21.498,0l0,-35.359c0,-10.607 5.799,-15.699 13.436,-15.699c3.819,0 7.355,0.99 9.901,2.263l4.101,-21.923c-2.545,-0.99 -6.223,-1.697 -9.9,-1.697c-7.779,0 -15.134,3.536 -18.953,10.891l-1.838,-9.194l-18.245,0l0,70.718Z" style="fill:#4f535f;fill-rule:nonzero;"/><path d="M614.761,139.283c-9.618,0 -16.972,-7.213 -16.972,-18.387c0,-11.173 7.354,-18.386 16.972,-18.386c9.476,0 16.831,7.213 16.831,18.386c0,11.174 -7.355,18.387 -16.831,18.387Zm-5.375,18.669c11.174,0 17.963,-4.526 21.074,-8.061l2.97,6.364l18.811,0l0,-70.718l-19.659,0l-2.122,5.941c-3.677,-3.961 -11.032,-7.638 -20.225,-7.638c-16.972,0 -34.086,13.295 -34.086,37.056c0,22.347 15.275,37.056 33.237,37.056Z" style="fill:#4f535f;fill-rule:nonzero;"/></g><g><path id="Shape.-Copy.-Copy.-2" d="M86.585,48.868l0,-1.978c0.147,-0.117 -3.503,-4.28 -5.16,-4.943c-0.01,-0.02 0.484,-0.504 1.17,-1.162c1.522,-1.462 3.99,-3.781 3.99,-3.781l3.096,-1.978l53.661,10.876c0,0 2.407,6.756 2.064,8.898c-0.303,1.881 -4.128,3.954 -4.128,3.954l-25.799,5.932c0.509,-0.064 3.183,24.718 3.096,35.593c0.087,0.345 1.425,22.783 0,34.603c-1.965,13.95 -5.36,22.249 -12.802,28.9c-3.884,3.471 -23.562,-1.974 -43,-2c-20.419,-0.027 -40.149,5.152 -42,3.555c-7.863,-6.787 -11.201,-37.737 -3.328,-47.262c7.872,-9.525 40.073,-5.273 50.565,-9.887c6.615,-2.909 10.224,-10.899 12.383,-17.796c3.096,-9.887 6.192,-41.524 6.192,-41.524Z" style="fill:#3cb400;fill-rule:nonzero;"/><path id="Shape.-Copy.-2.-Copy.-2" d="M77.206,36.601c-1.992,-1.965 -10.273,-10.04 -10.294,-9.632c-10.378,2.439 -29.21,7.906 -28.824,7.706l-17.5,-16.374l-15.441,13.484l-5.147,-4.816l15.441,-13.484l-9.265,-9.632l5.148,-3.853l28.327,26.619c8.56,-2.006 13.899,-3.174 22.114,-5.429l-11.324,-10.595l5.147,-4.816c10.122,10.029 26.765,25.927 26.765,26.006l-5.147,4.816Z" style="fill:#3cb400;fill-rule:nonzero;"/></g></svg>