<?xml version="1.0" encoding="UTF-8" standalone="no"?><!DOCTYPE svg PUBLIC "-//W3C//DTD SVG 1.1//EN" "http://www.w3.org/Graphics/SVG/1.1/DTD/svg11.dtd"><svg width="100%" height="100%" viewBox="0 0 2560 1440" version="1.1" xmlns="http://www.w3.org/2000/svg" xmlns:xlink="http://www.w3.org/1999/xlink" xml:space="preserve" style="fill-rule:evenodd;clip-rule:evenodd;stroke-linejoin:round;stroke-miterlimit:1.41421;"><g><path d="M1507.48,1046.87c-12.824,0 -22.63,-9.617 -22.63,-24.515c0,-14.898 9.806,-24.516 22.63,-24.516c12.634,0 22.441,9.618 22.441,24.516c0,14.898 -9.807,24.515 -22.441,24.515Zm-7.166,24.893c14.897,0 23.949,-6.035 28.098,-10.749l3.96,8.486l25.082,0l0,-94.29l-26.213,0l-2.829,7.92c-4.903,-5.28 -14.709,-10.183 -26.967,-10.183c-22.63,0 -45.448,17.726 -45.448,49.408c0,29.796 20.367,49.408 44.317,49.408Z" style="fill:#334141;fill-rule:nonzero;"/><path d="M1624.5,1071.77c24.138,0 46.202,-18.481 46.202,-49.408c0,-32.813 -21.309,-49.408 -44.693,-49.408c-12.824,0 -22.63,5.28 -28.476,11.314l0,-49.596l-28.664,0l0,134.835l24.138,0l3.206,-9.618c4.714,6.224 14.898,11.881 28.287,11.881Zm-5.28,-25.081c-12.824,0 -22.819,-9.618 -22.819,-24.327c0,-14.71 10.372,-24.327 23.196,-24.327c13.012,0 22.441,9.617 22.441,24.327c0,14.709 -10.183,24.327 -22.818,24.327Z" style="fill:#334141;fill-rule:nonzero;"/><rect x="1682.1" y="934.667" width="28.664" height="134.835" style="fill:#334141;fill-rule:nonzero;"/><path d="M1769.11,1071.77c21.121,0 36.585,-8.863 44.694,-24.327l-23.573,-11.503c-3.772,6.411 -9.429,11.126 -19.612,11.126c-11.315,0 -19.424,-6.412 -20.933,-17.161l66.569,0c0.755,-3.206 1.132,-7.166 1.132,-10.561c0,-24.138 -15.841,-46.39 -48.277,-46.39c-28.664,0 -48.088,20.178 -48.088,49.408c0,29.418 19.424,49.408 48.088,49.408Zm-19.235,-61.289c1.131,-7.92 8.674,-14.898 19.235,-14.898c10.372,0 17.915,6.789 19.047,14.898l-38.282,0Z" style="fill:#334141;fill-rule:nonzero;"/><path d="M1876.57,1071.77c21.121,0 36.585,-8.863 44.694,-24.327l-23.573,-11.503c-3.772,6.411 -9.429,11.126 -19.612,11.126c-11.315,0 -19.424,-6.412 -20.933,-17.161l66.569,0c0.755,-3.206 1.132,-7.166 1.132,-10.561c0,-24.138 -15.841,-46.39 -48.277,-46.39c-28.664,0 -48.088,20.178 -48.088,49.408c0,29.418 19.424,49.408 48.088,49.408Zm-19.235,-61.289c1.131,-7.92 8.674,-14.898 19.235,-14.898c10.372,0 17.915,6.789 19.047,14.898l-38.282,0Z" style="fill:#334141;fill-rule:nonzero;"/><path d="M1936.64,1069.5l28.665,0l0,-47.145c0,-14.144 7.731,-20.933 17.915,-20.933c5.092,0 9.806,1.32 13.201,3.018l5.468,-29.23c-3.394,-1.321 -8.297,-2.263 -13.2,-2.263c-10.372,0 -20.178,4.714 -25.27,14.52l-2.452,-12.257l-24.327,0l0,94.29Z" style="fill:#334141;fill-rule:nonzero;"/><path d="M2054.54,1046.87c-12.824,0 -22.63,-9.617 -22.63,-24.515c0,-14.898 9.806,-24.516 22.63,-24.516c12.635,0 22.441,9.618 22.441,24.516c0,14.898 -9.806,24.515 -22.441,24.515Zm-7.166,24.893c14.897,0 23.949,-6.035 28.098,-10.749l3.96,8.486l25.082,0l0,-94.29l-26.213,0l-2.829,7.92c-4.903,-5.28 -14.709,-10.183 -26.967,-10.183c-22.63,0 -45.448,17.726 -45.448,49.408c0,29.796 20.367,49.408 44.317,49.408Z" style="fill:#334141;fill-rule:nonzero;"/></g><g><path d="M556.816,914.872c-12.824,0 -22.63,-9.617 -22.63,-24.515c0,-14.898 9.806,-24.516 22.63,-24.516c12.635,0 22.441,9.618 22.441,24.516c0,14.898 -9.806,24.515 -22.441,24.515Zm-7.166,24.893c14.898,0 23.95,-6.035 28.098,-10.749l3.961,8.486l25.081,0l0,-94.29l-26.213,0l-2.829,7.92c-4.903,-5.28 -14.709,-10.183 -26.967,-10.183c-22.629,0 -45.448,17.726 -45.448,49.408c0,29.796 20.367,49.408 44.317,49.408Z" style="fill:#4f535f;fill-rule:nonzero;"/><path d="M673.833,939.765c24.139,0 46.203,-18.481 46.203,-49.408c0,-32.813 -21.31,-49.408 -44.694,-49.408c-12.824,0 -22.63,5.28 -28.476,11.314l0,-49.596l-28.664,0l0,134.835l24.138,0l3.206,-9.618c4.715,6.224 14.898,11.881 28.287,11.881Zm-5.28,-25.081c-12.824,0 -22.818,-9.618 -22.818,-24.327c0,-14.71 10.372,-24.327 23.195,-24.327c13.012,0 22.441,9.617 22.441,24.327c0,14.709 -10.183,24.327 -22.818,24.327Z" style="fill:#4f535f;fill-rule:nonzero;"/><rect x="731.438" y="802.667" width="28.664" height="134.835" style="fill:#4f535f;fill-rule:nonzero;"/><path d="M818.439,939.765c21.121,0 36.585,-8.863 44.694,-24.327l-23.573,-11.503c-3.771,6.411 -9.429,11.126 -19.612,11.126c-11.315,0 -19.424,-6.412 -20.933,-17.161l66.57,0c0.754,-3.206 1.131,-7.166 1.131,-10.561c0,-24.138 -15.841,-46.39 -48.277,-46.39c-28.664,0 -48.088,20.178 -48.088,49.408c0,29.418 19.424,49.408 48.088,49.408Zm-19.235,-61.289c1.132,-7.92 8.675,-14.898 19.235,-14.898c10.372,0 17.915,6.789 19.047,14.898l-38.282,0Z" style="fill:#4f535f;fill-rule:nonzero;"/><path d="M925.903,939.765c21.121,0 36.585,-8.863 44.694,-24.327l-23.573,-11.503c-3.771,6.411 -9.429,11.126 -19.612,11.126c-11.315,0 -19.424,-6.412 -20.932,-17.161l66.569,0c0.754,-3.206 1.131,-7.166 1.131,-10.561c0,-24.138 -15.841,-46.39 -48.277,-46.39c-28.664,0 -48.088,20.178 -48.088,49.408c0,29.418 19.424,49.408 48.088,49.408Zm-19.235,-61.289c1.132,-7.92 8.675,-14.898 19.235,-14.898c10.372,0 17.916,6.789 19.047,14.898l-38.282,0Z" style="fill:#4f535f;fill-rule:nonzero;"/><path d="M985.973,937.502l28.664,0l0,-47.145c0,-14.144 7.732,-20.933 17.915,-20.933c5.092,0 9.806,1.32 13.201,3.018l5.469,-29.23c-3.395,-1.321 -8.298,-2.263 -13.201,-2.263c-10.372,0 -20.178,4.714 -25.27,14.52l-2.451,-12.257l-24.327,0l0,94.29Z" style="fill:#4f535f;fill-rule:nonzero;"/><path d="M1103.88,914.872c-12.824,0 -22.63,-9.617 -22.63,-24.515c0,-14.898 9.806,-24.516 22.63,-24.516c12.635,0 22.441,9.618 22.441,24.516c0,14.898 -9.806,24.515 -22.441,24.515Zm-7.166,24.893c14.898,0 23.95,-6.035 28.098,-10.749l3.961,8.486l25.081,0l0,-94.29l-26.213,0l-2.829,7.92c-4.903,-5.28 -14.709,-10.183 -26.967,-10.183c-22.629,0 -45.448,17.726 -45.448,49.408c0,29.796 20.367,49.408 44.317,49.408Z" style="fill:#4f535f;fill-rule:nonzero;"/></g><g><path id="Shape.-Copy.-Copy.-2" d="M1790.31,1194.32l0,-2.637c0.197,-0.157 -4.671,-5.707 -6.88,-6.591c-0.013,-0.026 0.646,-0.672 1.56,-1.549c2.03,-1.949 5.32,-5.042 5.32,-5.042l4.128,-2.637l71.548,14.501c0,0 3.21,9.008 2.752,11.864c-0.403,2.508 -5.504,5.273 -5.504,5.273l-34.398,7.909c0.678,-0.086 4.244,32.957 4.128,47.457c0.116,0.459 1.899,30.378 0,46.138c-2.62,18.599 -7.147,29.665 -17.07,38.533c-5.178,4.628 -31.415,-2.632 -57.333,-2.666c-27.225,-0.037 -53.532,6.869 -56,4.739c-10.484,-9.05 -14.935,-50.317 -4.438,-63.016c10.497,-12.7 53.432,-7.031 67.42,-13.183c8.821,-3.879 13.632,-14.532 16.511,-23.728c4.128,-13.182 8.256,-55.365 8.256,-55.365Z" style="fill:#00ba2d;fill-rule:nonzero;"/><path id="Shape.-Copy.-2.-Copy.-2" d="M1777.8,1177.96c-2.656,-2.622 -13.697,-13.388 -13.726,-12.843c-13.837,3.252 -38.946,10.541 -38.431,10.274l-23.333,-21.832l-20.589,17.979l-6.862,-6.421l20.588,-17.98l-12.353,-12.842l6.863,-5.137l37.77,35.492c11.412,-2.674 18.531,-4.233 29.485,-7.239l-15.098,-14.126l6.862,-6.422c13.497,13.371 35.687,34.569 35.687,34.675l-6.863,6.422Z" style="fill:#00ba2d;fill-rule:nonzero;"/></g><g><path id="Shape.-Copy.-Copy.-21" d="M399.642,794.319l0,-2.637c0.197,-0.157 -4.67,-5.707 -6.879,-6.591c-0.013,-0.026 0.645,-0.672 1.559,-1.549c2.03,-1.949 5.32,-5.042 5.32,-5.042l4.128,-2.637l71.548,14.501c0,0 3.211,9.008 2.752,11.864c-0.403,2.508 -5.504,5.273 -5.504,5.273l-34.398,7.909c0.679,-0.086 4.244,32.957 4.128,47.457c0.116,0.459 1.899,30.378 0,46.138c-2.62,18.599 -7.147,29.665 -17.07,38.533c-5.178,4.628 -31.415,-2.632 -57.333,-2.666c-27.225,-0.037 -53.532,6.869 -56,4.739c-10.484,-9.05 -14.935,-50.317 -4.438,-63.016c10.497,-12.7 53.432,-7.031 67.421,-13.183c8.82,-3.879 13.631,-14.532 16.511,-23.728c4.127,-13.182 8.255,-55.365 8.255,-55.365Z" style="fill:#3cb400;fill-rule:nonzero;"/><path id="Shape.-Copy.-2.-Copy.-21" d="M387.137,777.964c-2.655,-2.622 -13.697,-13.388 -13.725,-12.843c-13.838,3.252 -38.947,10.541 -38.432,10.274l-23.333,-21.832l-20.588,17.979l-6.863,-6.421l20.588,-17.98l-12.353,-12.842l6.863,-5.137l37.771,35.492c11.412,-2.674 18.531,-4.233 29.484,-7.239l-15.098,-14.126l6.863,-6.422c13.496,13.371 35.686,34.569 35.686,34.675l-6.863,6.422Z" style="fill:#3cb400;fill-rule:nonzero;"/></g><g transform="matrix(1.33333,0,0,1.54046,488.954,-20.8855)"><text x="268.347px" y="167.804px" style="font-family:'Intro-Bold', 'Intro Bold';font-weight:700;font-size:83.092px;fill:#bdd358;">I<tspan x="305.655px 343.96px 365.398px 408.772px 430.044px 511.557px 558.172px 584.761px 611.35px 632.622px 714.135px 763.492px 802.877px 841.183px 891.786px 913.057px 960.004px 1010.61px 1057.22px 1078.49px 1160.01px 1206.95px 1230.47px 1268.77px " y="167.804px 167.804px 167.804px 167.804px 167.804px 167.804px 167.804px 167.804px 167.804px 167.804px 167.804px 167.804px 167.804px 167.804px 167.804px 167.804px 167.804px 167.804px 167.804px 167.804px 167.804px 167.804px 167.804px 167.804px ">t&apos;s Well Worth The Wait.</tspan></text><text x="268.347px" y="230.123px" style="font-family:'Intro-Bold', 'Intro Bold';font-weight:700;font-size:62.319px;fill:#bdd358;">W<tspan x="329.482px 364.443px 380.396px 421.901px 451.44px 488.457px 545.479px 563.115px 595.646px 630.607px " y="230.123px 230.123px 230.123px 230.123px 230.123px 230.123px 230.123px 230.123px 230.123px 230.123px ">e Promise!</tspan></text></g><g transform="matrix(1.33333,0,0,1.54046,481.041,267.2)"><text x="268.347px" y="167.804px" style="font-family:'Intro-Bold', 'Intro Bold';font-weight:700;font-size:83.092px;fill:#0a122a;">I<tspan x="305.655px 343.96px 365.398px 408.772px 430.044px 511.557px 558.172px 584.761px 611.35px 632.622px 714.135px 763.492px 802.877px 841.183px 891.786px 913.057px 960.004px 1010.61px 1057.22px 1078.49px 1160.01px 1206.95px 1230.47px 1268.77px " y="167.804px 167.804px 167.804px 167.804px 167.804px 167.804px 167.804px 167.804px 167.804px 167.804px 167.804px 167.804px 167.804px 167.804px 167.804px 167.804px 167.804px 167.804px 167.804px 167.804px 167.804px 167.804px 167.804px 167.804px ">t&apos;s Well Worth The Wait.</tspan></text><text x="268.347px" y="230.123px" style="font-family:'Intro-Bold', 'Intro Bold';font-weight:700;font-size:62.319px;fill:#0a122a;">W<tspan x="329.482px 364.443px 380.396px 421.901px 451.44px 488.457px 545.479px 563.115px 595.646px 630.607px " y="230.123px 230.123px 230.123px 230.123px 230.123px 230.123px 230.123px 230.123px 230.123px 230.123px ">e Promise!</tspan></text></g></svg>