<?xml version="1.0" encoding="UTF-8"?>
<svg width="192px" height="192px" viewBox="0 0 192 192" version="1.1" xmlns="http://www.w3.org/2000/svg" xmlns:xlink="http://www.w3.org/1999/xlink">
    <!-- Generator: Sketch 42 (36781) - http://www.bohemiancoding.com/sketch -->
    <title>192 - xxxhpdi</title>
    <desc>Created with Sketch.</desc>
    <defs></defs>
    <g id="Page-1" stroke="none" stroke-width="1" fill="none" fill-rule="evenodd">
        <g id="192---xxxhpdi" fill-rule="nonzero" fill="#20BF55">
            <g id="Group" transform="translate(3.000000, 40.000000)">
                <g transform="translate(0.269937, 0.001008)">
                    <g transform="translate(0.583981, 10.317678)" id="Shape">
                        <path d="M14.4447486,19.9708968 C11.0770587,19.9708968 8.50176634,17.4451293 8.50176634,13.5326659 C8.50176634,9.6202026 11.0770587,7.09443512 14.4447486,7.09443512 C17.7629138,7.09443512 20.3382061,9.6202026 20.3382061,13.5326659 C20.3382061,17.4451293 17.7629138,19.9708968 14.4447486,19.9708968 Z M12.5628042,26.5081773 C16.4752676,26.5081773 18.8524605,24.923382 19.9420073,23.6852607 L20.9820292,25.9138791 L27.5688346,25.9138791 L27.5688346,1.15145282 L20.6848801,1.15145282 L19.9420073,3.23149663 C18.6543611,1.84480076 16.0790688,0.557154591 12.8599534,0.557154591 C6.91697106,0.557154591 0.924463913,5.21249072 0.924463913,13.5326659 C0.924463913,21.3575926 6.27314798,26.5081773 12.5628042,26.5081773 Z"></path>
                    </g>
                    <g transform="translate(32.994912, 0.000000)" id="Shape">
                        <path d="M14.8657099,36.8258549 C21.204891,36.8258549 26.9992988,31.9724194 26.9992988,23.8503435 C26.9992988,15.2330192 21.4029904,10.8748322 15.2619087,10.8748322 C11.8942187,10.8748322 9.31892641,12.2615281 7.78365598,13.8463233 L7.78365598,0.821287137 L0.255878405,0.821287137 L0.255878405,36.2315567 L6.59505952,36.2315567 L7.43698202,33.7057892 C8.67510333,35.3401093 11.3494454,36.8258549 14.8657099,36.8258549 Z M13.479014,30.2390495 C10.1113241,30.2390495 7.48650687,27.713282 7.48650687,23.8503435 C7.48650687,19.9874051 10.2103738,17.4616376 13.5780637,17.4616376 C16.9952785,17.4616376 19.4715212,19.9874051 19.4715212,23.8503435 C19.4715212,27.713282 16.7971791,30.2390495 13.479014,30.2390495 Z"></path>
                    </g>
                    <g transform="translate(64.676888, 0.000000)" id="Rectangle-path">
                        <rect x="0.412707104" y="0.821287137" width="7.52777758" height="35.4102695"></rect>
                    </g>
                    <g transform="translate(76.452454, 10.317678)" id="Shape">
                        <path d="M13.5863179,26.5081773 C19.1331013,26.5081773 23.1941393,24.1805092 25.3237079,20.1194713 L19.1331013,17.0984553 C18.1426043,18.7823003 16.6568587,20.0204216 13.9825167,20.0204216 C11.0110255,20.0204216 8.88145688,18.3365766 8.48525806,15.51366 L25.967531,15.51366 C26.1656304,14.6717376 26.2646801,13.6317156 26.2646801,12.7402683 C26.2646801,6.40108718 22.1045925,0.557154591 13.5863179,0.557154591 C6.05854029,0.557154591 0.957480482,5.85631381 0.957480482,13.5326659 C0.957480482,21.2585429 6.05854029,26.5081773 13.5863179,26.5081773 Z M8.53478291,10.4126002 C8.83193203,8.33255643 10.8129261,6.50013689 13.5863179,6.50013689 C16.3101848,6.50013689 18.2911789,8.28303158 18.588328,10.4126002 L8.53478291,10.4126002 Z"></path>
                    </g>
                    <g transform="translate(107.225959, 10.317678)" id="Shape">
                        <path d="M12.7856661,26.5081773 C18.3324496,26.5081773 22.3934875,24.1805092 24.5230561,20.1194713 L18.3324496,17.0984553 C17.3419525,18.7823003 15.8562069,20.0204216 13.1818649,20.0204216 C10.2103738,20.0204216 8.0808051,18.3365766 7.68460628,15.51366 L25.1668792,15.51366 C25.3649786,14.6717376 25.4640283,13.6317156 25.4640283,12.7402683 C25.4640283,6.40108718 21.3039407,0.557154591 12.7856661,0.557154591 C5.25788851,0.557154591 0.1568287,5.85631381 0.1568287,13.5326659 C0.1568287,21.2585429 5.25788851,26.5081773 12.7856661,26.5081773 Z M7.73413113,10.4126002 C8.03128025,8.33255643 10.0122743,6.50013689 12.7856661,6.50013689 C15.509533,6.50013689 17.4905271,8.28303158 17.7876762,10.4126002 L7.73413113,10.4126002 Z"></path>
                    </g>
                    <g transform="translate(136.844400, 10.317678)" id="Shape">
                        <path d="M0.693347935,25.9138791 L8.22112551,25.9138791 L8.22112551,13.5326659 C8.22112551,9.81830201 10.2516445,8.03540732 12.9259865,8.03540732 C14.2631575,8.03540732 15.5012788,8.38208128 16.3927262,8.82780496 L17.8289469,1.15145282 C16.9374996,0.804778853 15.6498534,0.557154591 14.3622072,0.557154591 C11.6383403,0.557154591 9.06304801,1.7952759 7.72587699,4.37056823 L7.08205391,1.15145282 L0.693347935,1.15145282 L0.693347935,25.9138791 Z"></path>
                    </g>
                    <g transform="translate(157.782569, 10.317678)" id="Shape">
                        <path d="M13.5202847,19.9708968 C10.1525948,19.9708968 7.57730243,17.4451293 7.57730243,13.5326659 C7.57730243,9.6202026 10.1525948,7.09443512 13.5202847,7.09443512 C16.8384498,7.09443512 19.4137422,9.6202026 19.4137422,13.5326659 C19.4137422,17.4451293 16.8384498,19.9708968 13.5202847,19.9708968 Z M11.6383403,26.5081773 C15.5508037,26.5081773 17.9279966,24.923382 19.0175434,23.6852607 L20.0575653,25.9138791 L26.6443706,25.9138791 L26.6443706,1.15145282 L19.7604161,1.15145282 L19.0175434,3.23149663 C17.7298972,1.84480076 15.1546049,0.557154591 11.9354895,0.557154591 C5.99250715,0.557154591 0,5.21249072 0,13.5326659 C0,21.3575926 5.34868407,26.5081773 11.6383403,26.5081773 Z"></path>
                    </g>
                </g>
                <g transform="translate(58.272689, 52.294831)">
                    <g id="Shape.-Copy.-Copy.-2" transform="translate(4.747109, 11.867773)">
                        <path d="M26.5553296,4.848381 L26.5553296,4.15609423 C26.6067567,4.11495261 25.3282019,2.65759004 24.7482633,2.42577287 C24.7371868,2.40361969 26.5553296,0.694660333 26.5553296,0.694660333 L27.6392529,0.00237355467 L46.4291029,3.81034643 L47.1514547,6.92603252 L45.7059599,8.31060608 L36.673002,10.3874664 C36.8510186,10.3653132 37.7869903,19.0430291 37.7569253,22.851002 C37.7869903,22.9712621 38.2553718,30.8285192 37.7569253,34.9672074 C37.0685944,39.8519829 35.680065,42.3829834 33.4204409,44.3142657 C29.7983965,47.48217 36.673002,46.4504649 20.0509987,45.5675025 C8.10727156,45.5089548 4.85312811,46.4504649 2.68449033,46.4504649 C-0.0688330854,44.0737455 0.239729022,33.8809105 2.34507201,29.0823742 C9.46019772,25.5133391 19.9077942,25.5133391 20.0509987,25.6201491 L24.3866919,19.3887769 L26.5553296,4.848381 Z" id="Shape"></path>
                    </g>
                    <g id="Shape.-Copy.-2.-Copy.-2">
                        <path d="M27.6677356,13.4715051 C26.9707017,12.7831743 24.0710091,9.95627065 24.0630972,10.0994751 C20.429185,10.9531636 13.8354502,12.8670399 13.9707428,12.7974156 L7.84301581,7.06369869 L2.43605828,11.7854901 L0.633739097,10.0994751 L6.04069663,5.37768369 L2.7960474,2.00486251 L4.59836658,0.655892273 L14.5182427,9.97684146 C17.5152511,9.27426928 19.384821,8.86522669 22.2607781,8.07562417 L18.2961506,4.36575822 L20.0984698,2.67895204 C23.6429781,6.19102176 29.4700548,11.7577986 29.4700548,11.7854901 L27.6677356,13.4715051 Z" id="Shape"></path>
                    </g>
                </g>
            </g>
        </g>
    </g>
</svg>