<?xml version="1.0" encoding="UTF-8" standalone="no"?><!DOCTYPE svg PUBLIC "-//W3C//DTD SVG 1.1//EN" "http://www.w3.org/Graphics/SVG/1.1/DTD/svg11.dtd"><svg width="100%" height="100%" viewBox="0 0 649 417" version="1.1" xmlns="http://www.w3.org/2000/svg" xmlns:xlink="http://www.w3.org/1999/xlink" xml:space="preserve" style="fill-rule:evenodd;clip-rule:evenodd;stroke-linecap:round;stroke-linejoin:round;stroke-miterlimit:1.41421;"><g><path d="M51.483,112.206c-12.824,0 -22.63,-9.618 -22.63,-24.516c0,-14.898 9.806,-24.515 22.63,-24.515c12.634,0 22.441,9.617 22.441,24.515c0,14.898 -9.807,24.516 -22.441,24.516Zm-7.166,24.892c14.897,0 23.949,-6.034 28.098,-10.749l3.96,8.486l25.082,0l0,-94.29l-26.213,0l-2.829,7.92c-4.903,-5.28 -14.709,-10.183 -26.967,-10.183c-22.63,0 -45.448,17.727 -45.448,49.408c0,29.796 20.367,49.408 44.317,49.408Z" style="fill:#20bf55;fill-rule:nonzero;"/><path d="M168.5,137.098c24.138,0 46.202,-18.481 46.202,-49.408c0,-32.813 -21.309,-49.408 -44.693,-49.408c-12.824,0 -22.63,5.28 -28.476,11.315l0,-49.597l-28.664,0l0,134.835l24.138,0l3.206,-9.617c4.714,6.223 14.898,11.88 28.287,11.88Zm-5.28,-25.081c-12.824,0 -22.819,-9.618 -22.819,-24.327c0,-14.709 10.372,-24.327 23.196,-24.327c13.012,0 22.441,9.618 22.441,24.327c0,14.709 -10.183,24.327 -22.818,24.327Z" style="fill:#20bf55;fill-rule:nonzero;"/><rect x="226.104" y="0" width="28.664" height="134.835" style="fill:#20bf55;fill-rule:nonzero;"/><path d="M313.106,137.098c21.121,0 36.585,-8.863 44.694,-24.327l-23.573,-11.503c-3.772,6.412 -9.429,11.126 -19.612,11.126c-11.315,0 -19.424,-6.412 -20.933,-17.161l66.569,0c0.755,-3.206 1.132,-7.166 1.132,-10.56c0,-24.139 -15.841,-46.391 -48.277,-46.391c-28.664,0 -48.088,20.178 -48.088,49.408c0,29.419 19.424,49.408 48.088,49.408Zm-19.235,-61.288c1.131,-7.921 8.674,-14.898 19.235,-14.898c10.372,0 17.915,6.789 19.047,14.898l-38.282,0Z" style="fill:#20bf55;fill-rule:nonzero;"/><path d="M420.57,137.098c21.121,0 36.585,-8.863 44.694,-24.327l-23.573,-11.503c-3.772,6.412 -9.429,11.126 -19.612,11.126c-11.315,0 -19.424,-6.412 -20.933,-17.161l66.569,0c0.755,-3.206 1.132,-7.166 1.132,-10.56c0,-24.139 -15.841,-46.391 -48.277,-46.391c-28.664,0 -48.088,20.178 -48.088,49.408c0,29.419 19.424,49.408 48.088,49.408Zm-19.235,-61.288c1.131,-7.921 8.674,-14.898 19.235,-14.898c10.372,0 17.915,6.789 19.047,14.898l-38.282,0Z" style="fill:#20bf55;fill-rule:nonzero;"/><path d="M480.639,134.835l28.665,0l0,-47.145c0,-14.143 7.731,-20.932 17.915,-20.932c5.092,0 9.806,1.32 13.201,3.017l5.468,-29.23c-3.394,-1.32 -8.297,-2.263 -13.2,-2.263c-10.372,0 -20.178,4.714 -25.27,14.521l-2.452,-12.258l-24.327,0l0,94.29Z" style="fill:#20bf55;fill-rule:nonzero;"/><path d="M598.544,112.206c-12.824,0 -22.63,-9.618 -22.63,-24.516c0,-14.898 9.806,-24.515 22.63,-24.515c12.635,0 22.441,9.617 22.441,24.515c0,14.898 -9.806,24.516 -22.441,24.516Zm-7.166,24.892c14.897,0 23.949,-6.034 28.098,-10.749l3.96,8.486l25.082,0l0,-94.29l-26.213,0l-2.829,7.92c-4.903,-5.28 -14.709,-10.183 -26.967,-10.183c-22.63,0 -45.448,17.727 -45.448,49.408c0,29.796 20.367,49.408 44.317,49.408Z" style="fill:#20bf55;fill-rule:nonzero;"/></g><g><path id="Shape.-Copy.-Copy.-2" d="M334.309,259.652l0,-2.637c0.197,-0.156 -4.671,-5.706 -6.88,-6.591c-0.013,-0.026 0.646,-0.671 1.56,-1.549c2.03,-1.949 5.32,-5.042 5.32,-5.042l4.128,-2.636l71.548,14.5c0,0 3.21,9.008 2.752,11.864c-0.403,2.509 -5.504,5.273 -5.504,5.273l-34.398,7.91c0.678,-0.086 4.244,32.957 4.128,47.456c0.116,0.46 1.899,30.378 0,46.138c-2.62,18.6 -7.147,29.666 -17.07,38.534c-5.178,4.627 -31.415,-2.632 -57.333,-2.667c-27.225,-0.037 -53.532,6.869 -56,4.739c-10.484,-9.05 -14.935,-50.316 -4.438,-63.016c10.497,-12.7 53.432,-7.03 67.42,-13.182c8.821,-3.879 13.632,-14.533 16.511,-23.728c4.128,-13.183 8.256,-55.366 8.256,-55.366Z" style="fill:#20bf55;fill-rule:nonzero;stroke:#20bf55;stroke-width:2px;"/><path id="Shape.-Copy.-2.-Copy.-2" d="M321.804,243.297c-2.656,-2.621 -13.697,-13.388 -13.726,-12.843c-13.837,3.252 -38.946,10.541 -38.431,10.274l-23.333,-21.832l-20.589,17.98l-6.862,-6.422l20.588,-17.979l-12.353,-12.843l6.863,-5.137l37.77,35.492c11.412,-2.674 18.531,-4.232 29.485,-7.238l-15.098,-14.127l6.862,-6.421c13.497,13.371 35.687,34.568 35.687,34.675l-6.863,6.421Z" style="fill:#20bf55;fill-rule:nonzero;stroke:#20bf55;stroke-width:2px;"/></g></svg>