<?xml version="1.0" encoding="UTF-8" standalone="no"?><!DOCTYPE svg PUBLIC "-//W3C//DTD SVG 1.1//EN" "http://www.w3.org/Graphics/SVG/1.1/DTD/svg11.dtd"><svg width="100%" height="100%" viewBox="0 0 523 314" version="1.1" xmlns="http://www.w3.org/2000/svg" xmlns:xlink="http://www.w3.org/1999/xlink" xml:space="preserve" style="fill-rule:evenodd;clip-rule:evenodd;stroke-linejoin:round;stroke-miterlimit:1.41421;"><g><path d="M38.612,84.154c-9.618,0 -16.972,-7.213 -16.972,-18.386c0,-11.174 7.354,-18.387 16.972,-18.387c9.476,0 16.831,7.213 16.831,18.387c0,11.173 -7.355,18.386 -16.831,18.386Zm-5.375,18.67c11.174,0 17.963,-4.526 21.074,-8.062l2.97,6.364l18.811,0l0,-70.717l-19.659,0l-2.122,5.94c-3.677,-3.96 -11.032,-7.638 -20.225,-7.638c-16.972,0 -34.086,13.295 -34.086,37.057c0,22.346 15.275,37.056 33.237,37.056Z" style="fill:#20bf55;fill-rule:nonzero;"/><path d="M132.375,102.824c18.104,0 34.652,-13.861 34.652,-37.056c0,-24.61 -15.983,-37.057 -33.521,-37.057c-9.617,0 -16.972,3.961 -21.356,8.487l0,-37.198l-21.499,0l0,101.126l18.104,0l2.405,-7.213c3.535,4.668 11.173,8.911 21.215,8.911Zm-3.96,-18.811c-9.618,0 -17.114,-7.213 -17.114,-18.245c0,-11.032 7.779,-18.246 17.397,-18.246c9.759,0 16.83,7.214 16.83,18.246c0,11.032 -7.637,18.245 -17.113,18.245Z" style="fill:#20bf55;fill-rule:nonzero;"/><rect x="181.578" y="0" width="21.498" height="101.126" style="fill:#20bf55;fill-rule:nonzero;"/><path d="M252.829,102.824c15.841,0 27.439,-6.648 33.521,-18.245l-17.68,-8.628c-2.828,4.809 -7.072,8.345 -14.709,8.345c-8.486,0 -14.568,-4.809 -15.699,-12.871l49.926,0c0.566,-2.404 0.849,-5.375 0.849,-7.92c0,-18.104 -11.881,-34.794 -36.208,-34.794c-21.498,0 -36.066,15.134 -36.066,37.057c0,22.064 14.568,37.056 36.066,37.056Zm-14.426,-45.967c0.849,-5.94 6.506,-11.173 14.426,-11.173c7.779,0 13.437,5.091 14.285,11.173l-28.711,0Z" style="fill:#20bf55;fill-rule:nonzero;"/><path d="M338.428,102.824c15.84,0 27.438,-6.648 33.52,-18.245l-17.68,-8.628c-2.828,4.809 -7.071,8.345 -14.709,8.345c-8.486,0 -14.568,-4.809 -15.699,-12.871l49.926,0c0.566,-2.404 0.849,-5.375 0.849,-7.92c0,-18.104 -11.881,-34.794 -36.207,-34.794c-21.499,0 -36.067,15.134 -36.067,37.057c0,22.064 14.568,37.056 36.067,37.056Zm-14.427,-45.967c0.849,-5.94 6.506,-11.173 14.427,-11.173c7.778,0 13.436,5.091 14.285,11.173l-28.712,0Z" style="fill:#20bf55;fill-rule:nonzero;"/><path d="M388.48,101.126l21.498,0l0,-35.358c0,-10.608 5.799,-15.7 13.436,-15.7c3.819,0 7.355,0.99 9.901,2.263l4.101,-21.922c-2.546,-0.99 -6.223,-1.698 -9.9,-1.698c-7.779,0 -15.134,3.536 -18.953,10.891l-1.838,-9.193l-18.245,0l0,70.717Z" style="fill:#20bf55;fill-rule:nonzero;"/><path d="M484.908,84.154c-9.618,0 -16.973,-7.213 -16.973,-18.386c0,-11.174 7.355,-18.387 16.973,-18.387c9.476,0 16.831,7.213 16.831,18.387c0,11.173 -7.355,18.386 -16.831,18.386Zm-5.375,18.67c11.174,0 17.962,-4.526 21.074,-8.062l2.97,6.364l18.811,0l0,-70.717l-19.659,0l-2.122,5.94c-3.677,-3.96 -11.032,-7.638 -20.225,-7.638c-16.973,0 -34.086,13.295 -34.086,37.057c0,22.346 15.275,37.056 33.237,37.056Z" style="fill:#20bf55;fill-rule:nonzero;"/></g><g><path id="Shape.-Copy.-Copy.-2" d="M250.732,194.739l0,-1.977c0.147,-0.118 -3.503,-4.28 -5.16,-4.944c-0.032,-0.063 5.16,-4.943 5.16,-4.943l3.095,-1.977l53.662,10.875c0,0 2.407,6.756 2.063,8.898c-0.302,1.881 -4.127,3.955 -4.127,3.955l-25.799,5.932c0.509,-0.065 3.183,24.717 3.096,35.592c0.087,0.345 1.424,22.784 0,34.604c-1.965,13.949 -3.967,21.655 -12.383,26.694c-8.217,4.919 8.417,6.043 -34.739,3.76c-1.108,-0.059 -46.845,2.338 -53.04,2.338c-7.863,-6.787 -9.235,-39.685 -0.969,-49.6c8.267,-9.914 40.074,-5.273 50.566,-9.887c6.615,-2.909 10.223,-10.899 12.383,-17.796c3.096,-9.887 6.192,-41.524 6.192,-41.524Z" style="fill:#20bf55;fill-rule:nonzero;"/><path id="Shape.-Copy.-2.-Copy.-2" d="M240.353,185.473c-1.992,-1.966 -10.273,-10.041 -10.294,-9.632c-10.378,2.439 -29.21,7.905 -28.824,7.705l-17.5,-16.374l-15.441,13.485l-5.147,-4.816l15.441,-13.485l-9.265,-9.632l5.147,-3.853l28.328,26.619c8.559,-2.005 13.899,-3.174 22.114,-5.428l-11.324,-10.596l5.147,-4.816c10.122,10.029 26.765,25.927 26.765,26.007l-5.147,4.816Z" style="fill:#20bf55;fill-rule:nonzero;"/></g></svg>