<?xml version="1.0" encoding="UTF-8"?>
<svg width="150px" height="84px" viewBox="0 0 150 84" version="1.1" xmlns="http://www.w3.org/2000/svg" xmlns:xlink="http://www.w3.org/1999/xlink">
    <!-- Generator: Sketch 42 (36781) - http://www.bohemiancoding.com/sketch -->
    <title>72 - hdpi</title>
    <desc>Created with Sketch.</desc>
    <defs></defs>
    <g id="Page-1" stroke="none" stroke-width="1" fill="none" fill-rule="evenodd">
        <g id="72---hdpi" fill-rule="nonzero" fill="#20BF55">
            <g id="ableera-logo-192x192" transform="translate(67.000000, 23.000000)">
                <g id="192---xxxhpdi">
                    <g id="Page-1">
                        <g id="192---xxxhpdi">
                            <g id="Group">
                                <g transform="translate(0.116889, 0.000438)">
                                    <g id="Shape" transform="translate(0.252878, 4.484893)">
                                        <path d="M6.25493668,8.68095843 C4.7966429,8.68095843 3.68147703,7.58305667 3.68147703,5.88238532 C3.68147703,4.18171401 4.7966429,3.08381226 6.25493668,3.08381226 C7.69178503,3.08381226 8.80695088,4.18171401 8.80695088,5.88238532 C8.80695088,7.58305667 7.69178503,8.68095843 6.25493668,8.68095843 Z M5.44000778,11.5225865 C7.13420209,11.5225865 8.16358595,10.8337069 8.63538691,10.2955198 L9.08574235,11.2642567 L11.9379935,11.2642567 L11.9379935,0.500514031 L8.95706937,0.500514031 L8.63538691,1.40466841 C8.07780396,0.801898827 6.96263812,0.242184209 5.5686808,0.242184209 C2.99522111,0.242184209 0.400315949,2.26576782 0.400315949,5.88238532 C0.400315949,9.28372799 2.71642965,11.5225865 5.44000778,11.5225865 Z"></path>
                                    </g>
                                    <g id="Shape" transform="translate(14.287620, 0.000000)">
                                        <path d="M6.43722343,16.0074792 C9.18224707,16.0074792 11.6913703,13.8977857 11.6913703,10.3672781 C11.6913703,6.62149566 9.26802906,4.72707697 6.6087874,4.72707697 C5.15049357,4.72707697 4.03532773,5.32984657 3.37051732,6.01872606 L3.37051732,0.356997463 L0.110801736,0.356997463 L0.110801736,15.7491494 L2.85582538,15.7491494 L3.22039884,14.6512477 C3.75653627,15.3616547 4.91459314,16.0074792 6.43722343,16.0074792 Z M5.83674949,13.1443237 C4.37845571,13.1443237 3.24184434,12.0464219 3.24184434,10.3672781 C3.24184434,8.68813427 4.4213467,7.59023251 5.87964049,7.59023251 C7.35937979,7.59023251 8.43165468,8.68813427 8.43165468,10.3672781 C8.43165468,12.0464219 7.2735978,13.1443237 5.83674949,13.1443237 Z"></path>
                                    </g>
                                    <g id="Rectangle-path" transform="translate(28.006707, 0.000000)">
                                        <rect x="0.178712477" y="0.356997463" width="3.25971558" height="15.3921519"></rect>
                                    </g>
                                    <g id="Shape" transform="translate(33.105821, 4.484893)">
                                        <path d="M5.88321476,11.5225865 C8.28511042,11.5225865 10.0436412,10.5107946 10.9657976,8.74554086 L8.28511042,7.43236426 C7.8562005,8.16429877 7.21283557,8.70248589 6.05477873,8.70248589 C4.76804887,8.70248589 3.84589251,7.97055139 3.67432853,6.74348473 L11.2445891,6.74348473 C11.3303711,6.37751752 11.373262,5.92544029 11.373262,5.53794557 C11.373262,2.78242746 9.57184028,0.242184209 5.88321476,0.242184209 C2.62349917,0.242184209 0.414612947,2.54562513 0.414612947,5.88238532 C0.414612947,9.24067302 2.62349917,11.5225865 5.88321476,11.5225865 Z M3.69577403,4.52615375 C3.82444701,3.62199939 4.68226689,2.82548244 5.88321476,2.82548244 C7.06271712,2.82548244 7.92053701,3.6004719 8.04920998,4.52615375 L3.69577403,4.52615375 Z"></path>
                                    </g>
                                    <g id="Shape" transform="translate(46.431517, 4.484893)">
                                        <path d="M5.53651255,11.5225865 C7.93840825,11.5225865 9.69693902,10.5107946 10.6190954,8.74554086 L7.93840825,7.43236426 C7.50949828,8.16429877 6.86613335,8.70248589 5.70807652,8.70248589 C4.4213467,8.70248589 3.4991903,7.97055139 3.32762632,6.74348473 L10.8978869,6.74348473 C10.9836688,6.37751752 11.0265598,5.92544029 11.0265598,5.53794557 C11.0265598,2.78242746 9.22513806,0.242184209 5.53651255,0.242184209 C2.27679696,0.242184209 0.0679107415,2.54562513 0.0679107415,5.88238532 C0.0679107415,9.24067302 2.27679696,11.5225865 5.53651255,11.5225865 Z M3.34907182,4.52615375 C3.47774481,3.62199939 4.33556468,2.82548244 5.53651255,2.82548244 C6.7160149,2.82548244 7.57383479,3.6004719 7.70250777,4.52615375 L3.34907182,4.52615375 Z"></path>
                                    </g>
                                    <g id="Shape" transform="translate(59.257041, 4.484893)">
                                        <path d="M0.300236962,11.2642567 L3.55995254,11.2642567 L3.55995254,5.88238532 C3.55995254,4.26782395 4.43921795,3.49283448 5.59727478,3.49283448 C6.1763032,3.49283448 6.71244063,3.64352687 7.0984596,3.83727424 L7.72037901,0.500514031 C7.33436008,0.349821635 6.77677714,0.242184209 6.21919419,0.242184209 C5.03969184,0.242184209 3.924526,0.780371338 3.34549757,1.89980057 L3.06670611,0.500514031 L0.300236962,0.500514031 L0.300236962,11.2642567 Z"></path>
                                    </g>
                                    <g id="Shape" transform="translate(68.323791, 4.484893)">
                                        <path d="M5.85462074,8.68095843 C4.39632695,8.68095843 3.28116108,7.58305667 3.28116108,5.88238532 C3.28116108,4.18171401 4.39632695,3.08381226 5.85462074,3.08381226 C7.29146905,3.08381226 8.40663493,4.18171401 8.40663493,5.88238532 C8.40663493,7.58305667 7.29146905,8.68095843 5.85462074,8.68095843 Z M5.03969184,11.5225865 C6.73388615,11.5225865 7.76327001,10.8337069 8.23507096,10.2955198 L8.68542641,11.2642567 L11.5376775,11.2642567 L11.5376775,0.500514031 L8.55675339,0.500514031 L8.23507096,1.40466841 C7.67748802,0.801898827 6.56232218,0.242184209 5.16836486,0.242184209 C2.59490517,0.242184209 0,2.26576782 0,5.88238532 C0,9.28372799 2.3161137,11.5225865 5.03969184,11.5225865 Z"></path>
                                    </g>
                                </g>
                                <g transform="translate(25.233529, 22.731541)">
                                    <g id="Shape.-Copy.-Copy.-2" transform="translate(2.055617, 5.158689)">
                                        <path d="M11.4991205,2.10749644 L11.4991205,1.80657291 C11.5213897,1.78868946 10.9677436,1.15520244 10.7166157,1.05443605 C10.7118193,1.04480649 11.4991205,0.301955267 11.4991205,0.301955267 L11.9684864,0.00103173781 L20.1049604,1.65628311 L20.4177568,3.01061094 L19.7918214,3.612458 L15.8803252,4.51522858 C15.9574108,4.50559902 16.36271,8.27763248 16.3496911,9.93288386 C16.36271,9.98515857 16.5655308,13.4005546 16.3496911,15.1995615 C16.0516266,17.3228779 15.4503587,18.4230543 14.4718851,19.262545 C12.9034494,20.6395711 15.8803252,20.191109 8.6825829,19.8073025 C3.51065094,19.781853 2.1015256,20.191109 1.16245132,20.191109 C-0.029806444,19.1579956 0.10380865,14.7273695 1.01547471,12.6415395 C4.09650174,11.0901497 8.62057178,11.0901497 8.6825829,11.136578 L10.5600463,8.42792229 L11.4991205,2.10749644 Z" id="Shape"></path>
                                    </g>
                                    <g id="Shape.-Copy.-2.-Copy.-2">
                                        <path d="M11.9808201,5.85579991 C11.678987,5.55659597 10.4233477,4.32779622 10.4199217,4.39004439 C8.84634701,4.76112609 5.99109527,5.59305071 6.04968034,5.56278639 L3.39622161,3.07045173 L1.05487404,5.12292215 L0.274424847,4.39004439 L2.61577241,2.33757397 L1.21075831,0.87147454 L1.9912075,0.285103549 L6.28676146,4.33673795 C7.5845409,4.03134355 8.39411133,3.85354074 9.63947254,3.51031596 L7.92268988,1.89770975 L8.70313908,1.16448808 C10.2379996,2.69111613 12.7612693,5.1108852 12.7612693,5.12292215 L11.9808201,5.85579991 Z" id="Shape"></path>
                                    </g>
                                </g>
                            </g>
                        </g>
                    </g>
                </g>
            </g>
        </g>
    </g>
</svg>