<?xml version="1.0" encoding="UTF-8" standalone="no"?>
<!DOCTYPE svg PUBLIC "-//W3C//DTD SVG 1.1//EN" "http://www.w3.org/Graphics/SVG/1.1/DTD/svg11.dtd">
<svg width="100%" height="100%" viewBox="0 0 250 141" version="1.1" xmlns="http://www.w3.org/2000/svg" xmlns:xlink="http://www.w3.org/1999/xlink" xml:space="preserve" style="fill-rule:evenodd;clip-rule:evenodd;stroke-linejoin:round;stroke-miterlimit:1.41421;">
    <g transform="matrix(0.382857,0,0,0.382857,-245.219,-156.845)">
        <g transform="matrix(2.94658,0,0,2.94658,-1062.91,-266.39)">
            <g transform="matrix(1,0,0,1,11.566,0)">
                <path d="M608,265.356C604.736,265.356 602.24,262.908 602.24,259.116C602.24,255.324 604.736,252.876 608,252.876C611.216,252.876 613.712,255.324 613.712,259.116C613.712,262.908 611.216,265.356 608,265.356ZM606.176,271.692C609.968,271.692 612.272,270.156 613.328,268.956L614.336,271.116L620.72,271.116L620.72,247.116L614.048,247.116L613.328,249.132C612.08,247.788 609.584,246.54 606.464,246.54C600.704,246.54 594.896,251.052 594.896,259.116C594.896,266.7 600.08,271.692 606.176,271.692Z" style="fill:rgb(32,191,85);fill-rule:nonzero;"/>
            </g>
            <g transform="matrix(1,0,0,1,9.97901,0)">
                <path d="M641.408,271.692C647.552,271.692 653.168,266.988 653.168,259.116C653.168,250.764 647.744,246.54 641.792,246.54C638.528,246.54 636.032,247.884 634.544,249.42L634.544,236.796L627.248,236.796L627.248,271.116L633.392,271.116L634.208,268.668C635.408,270.252 638,271.692 641.408,271.692ZM640.064,265.308C636.8,265.308 634.256,262.86 634.256,259.116C634.256,255.372 636.896,252.924 640.16,252.924C643.472,252.924 645.872,255.372 645.872,259.116C645.872,262.86 643.28,265.308 640.064,265.308Z" style="fill:rgb(32,191,85);fill-rule:nonzero;"/>
            </g>
            <g transform="matrix(1,0,0,1,9.68551,0)">
                <rect x="658.4" y="236.796" width="7.296" height="34.32" style="fill:rgb(32,191,85);fill-rule:nonzero;"/>
            </g>
            <g transform="matrix(1,0,0,1,9.09851,0)">
                <path d="M683.168,271.692C688.544,271.692 692.48,269.436 694.544,265.5L688.544,262.572C687.584,264.204 686.144,265.404 683.552,265.404C680.672,265.404 678.608,263.772 678.224,261.036L695.168,261.036C695.36,260.22 695.456,259.212 695.456,258.348C695.456,252.204 691.424,246.54 683.168,246.54C675.872,246.54 670.928,251.676 670.928,259.116C670.928,266.604 675.872,271.692 683.168,271.692ZM678.272,256.092C678.56,254.076 680.48,252.3 683.168,252.3C685.808,252.3 687.728,254.028 688.016,256.092L678.272,256.092Z" style="fill:rgb(32,191,85);fill-rule:nonzero;"/>
            </g>
            <g transform="matrix(1,0,0,1,9.92451,0)">
                <path d="M711.392,271.692C716.768,271.692 720.704,269.436 722.768,265.5L716.768,262.572C715.808,264.204 714.368,265.404 711.776,265.404C708.896,265.404 706.832,263.772 706.448,261.036L723.392,261.036C723.584,260.22 723.68,259.212 723.68,258.348C723.68,252.204 719.648,246.54 711.392,246.54C704.096,246.54 699.152,251.676 699.152,259.116C699.152,266.604 704.096,271.692 711.392,271.692ZM706.496,256.092C706.784,254.076 708.704,252.3 711.392,252.3C714.032,252.3 715.952,254.028 716.24,256.092L706.496,256.092Z" style="fill:rgb(32,191,85);fill-rule:nonzero;"/>
            </g>
            <g transform="matrix(1,0,0,1,9.63101,0)">
                <path d="M728.672,271.116L735.968,271.116L735.968,259.116C735.968,255.516 737.936,253.788 740.528,253.788C741.824,253.788 743.024,254.124 743.888,254.556L745.28,247.116C744.416,246.78 743.168,246.54 741.92,246.54C739.28,246.54 736.784,247.74 735.488,250.236L734.864,247.116L728.672,247.116L728.672,271.116Z" style="fill:rgb(32,191,85);fill-rule:nonzero;"/>
            </g>
            <g transform="matrix(1,0,0,1,11.9245,0)">
                <path d="M759.104,265.356C755.84,265.356 753.344,262.908 753.344,259.116C753.344,255.324 755.84,252.876 759.104,252.876C762.32,252.876 764.816,255.324 764.816,259.116C764.816,262.908 762.32,265.356 759.104,265.356ZM757.28,271.692C761.072,271.692 763.376,270.156 764.432,268.956L765.44,271.116L771.824,271.116L771.824,247.116L765.152,247.116L764.432,249.132C763.184,247.788 760.688,246.54 757.568,246.54C751.808,246.54 746,251.052 746,259.116C746,266.7 751.184,271.692 757.28,271.692Z" style="fill:rgb(32,191,85);fill-rule:nonzero;"/>
            </g>
        </g>
        <g transform="matrix(2.25951,0,0,2.25951,-18.3856,-438.433)">
            <g id="Shape.-Copy.-Copy.-2" transform="matrix(1,0,0,1,376,450)">
                <path d="M63.564,21.128L63.564,20.253C63.629,20.201 62.013,18.359 61.28,18.066C61.266,18.038 63.564,15.878 63.564,15.878L64.934,15.003L88.683,19.816L89.596,23.754L87.769,25.504L76.352,28.129C76.577,28.101 77.76,39.069 77.722,43.882C77.76,44.034 78.352,53.965 77.722,59.196C76.852,65.37 75.097,68.569 72.241,71.01C67.663,75.014 76.352,73.71 55.343,72.594C40.247,72.52 36.134,73.71 33.393,73.71C29.913,70.706 30.303,57.823 32.964,51.758C41.957,47.247 55.162,47.247 55.343,47.382L60.823,39.506L63.564,21.128Z" style="fill:rgb(32,191,85);fill-rule:nonzero;"/>
            </g>
            <g id="Shape.-Copy.-2.-Copy.-2" transform="matrix(1,0,0,1,376,450)">
                <path d="M58.97,17.027C58.089,16.157 54.424,12.584 54.414,12.765C49.821,13.844 41.487,16.263 41.658,16.175L33.913,8.928L27.079,14.896L24.801,12.765L31.635,6.797L27.534,2.534L29.812,0.829L42.35,12.61C46.138,11.722 48.501,11.205 52.136,10.207L47.125,5.518L49.403,3.386C53.883,7.825 61.248,14.861 61.248,14.896L58.97,17.027Z" style="fill:rgb(32,191,85);fill-rule:nonzero;"/>
            </g>
        </g>
    </g>
</svg>
